<?xml version="1.0" standalone="no"?>
<!DOCTYPE svg PUBLIC "-//W3C//DTD SVG 20010904//EN"
 "http://www.w3.org/TR/2001/REC-SVG-20010904/DTD/svg10.dtd">
<svg version="1.0" xmlns="http://www.w3.org/2000/svg"
 width="512.000000pt" height="512.000000pt" viewBox="0 0 512.000000 512.000000"
 preserveAspectRatio="xMidYMid meet">
<metadata>
Created by potrace 1.14, written by Peter Selinger 2001-2017
</metadata>
<g transform="translate(0.000000,512.000000) scale(0.100000,-0.100000)"
fill="#000000" stroke="none">
<path d="M1540 4346 l0 -283 164 0 163 -1 1 283 0 283 -164 1 -164 0 0 -283z"/>
<path d="M500 4129 c-60 -61 -110 -113 -110 -116 0 -7 387 -393 394 -393 7 0
226 222 226 229 0 8 -384 391 -392 391 -4 0 -57 -50 -118 -111z"/>
<path d="M2596 4047 c-108 -108 -196 -199 -196 -203 0 -4 51 -58 113 -120
l113 -113 199 199 200 200 -116 116 -117 117 -196 -196z"/>
<path d="M1667 3794 c-1 -1 -29 -4 -62 -7 -271 -24 -535 -203 -673 -457 -65
-121 -93 -225 -99 -365 -6 -141 9 -239 57 -362 54 -142 169 -293 290 -383 25
-19 48 -36 53 -40 4 -3 -20 -35 -53 -70 -112 -116 -200 -272 -241 -427 -27
-101 -34 -298 -14 -400 40 -201 124 -362 265 -503 145 -146 330 -242 530 -276
60 -10 2406 -11 2490 -1 403 49 762 361 870 757 28 99 32 135 35 265 7 388
-167 700 -512 919 -1 1 -5 33 -8 71 -23 256 -116 486 -276 680 -312 380 -813
538 -1284 403 -167 -47 -383 -168 -480 -267 -21 -23 -44 -41 -51 -41 -6 0 -18
15 -25 33 -20 48 -91 148 -140 198 -170 171 -365 259 -607 272 -34 2 -64 2
-65 1z"/>
<path d="M0 2925 l0 -165 283 0 282 0 0 162 0 163 -283 3 -282 2 0 -165z"/>
<path d="M598 2046 c-101 -101 -190 -192 -197 -200 -11 -13 4 -32 101 -130
l114 -115 199 199 199 199 -45 48 c-24 26 -76 79 -115 116 l-72 68 -184 -185z"/>
</g>
</svg>
